<svg preserveAspectRatio="none" width="100%" height="100%" overflow="visible" style="display: block;" viewBox="0 0 1921.5 1079" fill="none" xmlns="http://www.w3.org/2000/svg">
<g id="Group 99">
<path id="Arrow 5" d="M1920.5 981L0.500008 981" stroke="url(#paint0_linear_0_4)" stroke-opacity="0.2"/>
<path id="Arrow 6" d="M1920.5 883L0.500008 883" stroke="url(#paint1_linear_0_4)" stroke-opacity="0.2"/>
<path id="Arrow 7" d="M1920.5 785L0.500008 785" stroke="url(#paint2_linear_0_4)" stroke-opacity="0.2"/>
<path id="Arrow 8" d="M1920.5 687L0.500008 687" stroke="url(#paint3_linear_0_4)" stroke-opacity="0.2"/>
<path id="Arrow 9" d="M1920.5 589L0.500008 589" stroke="url(#paint4_linear_0_4)" stroke-opacity="0.2"/>
<path id="Arrow 10" d="M1920.5 491L0.500008 491" stroke="url(#paint5_linear_0_4)" stroke-opacity="0.2"/>
<path id="Arrow 11" d="M1920.5 393L0.500008 393" stroke="url(#paint6_linear_0_4)" stroke-opacity="0.2"/>
<path id="Arrow 20" d="M1921.5 295L1.5 295" stroke="url(#paint7_linear_0_4)" stroke-opacity="0.2"/>
<path id="Arrow 12" d="M1920.5 197L0.500008 197" stroke="url(#paint8_linear_0_4)" stroke-opacity="0.2"/>
<path id="Arrow 21" d="M1920.5 99L0.500008 99.0001" stroke="url(#paint9_linear_0_4)" stroke-opacity="0.2"/>
<path id="Arrow 13" d="M1920.5 1L0.500008 1.00006" stroke="url(#paint10_linear_0_4)" stroke-opacity="0.2"/>
<path id="Arrow 2" d="M0.500047 1L0.5 1079" stroke="url(#paint11_linear_0_4)" stroke-opacity="0.2"/>
<path id="Arrow 5_2" d="M101.5 1L101.5 1079" stroke="url(#paint12_linear_0_4)" stroke-opacity="0.2"/>
<path id="Arrow 6_2" d="M202.5 1L202.5 1079" stroke="url(#paint13_linear_0_4)" stroke-opacity="0.2"/>
<path id="Arrow 7_2" d="M303.5 1L303.5 1079" stroke="url(#paint14_linear_0_4)" stroke-opacity="0.2"/>
<path id="Arrow 8_2" d="M404.5 1L404.5 1079" stroke="url(#paint15_linear_0_4)" stroke-opacity="0.2"/>
<path id="Arrow 9_2" d="M505.5 1L505.5 1079" stroke="url(#paint16_linear_0_4)" stroke-opacity="0.2"/>
<path id="Arrow 10_2" d="M606.5 1L606.5 1079" stroke="url(#paint17_linear_0_4)" stroke-opacity="0.2"/>
<path id="Arrow 11_2" d="M707.5 1L707.5 1079" stroke="url(#paint18_linear_0_4)" stroke-opacity="0.2"/>
<path id="Arrow 24" d="M808.5 1L808.5 1079" stroke="url(#paint19_linear_0_4)" stroke-opacity="0.2"/>
<path id="Arrow 12_2" d="M909.5 1L909.5 1079" stroke="url(#paint20_linear_0_4)" stroke-opacity="0.2"/>
<path id="Arrow 13_2" d="M1010.5 1L1010.5 1079" stroke="url(#paint21_linear_0_4)" stroke-opacity="0.2"/>
<path id="Arrow 14" d="M1111.5 1L1111.5 1079" stroke="url(#paint22_linear_0_4)" stroke-opacity="0.2"/>
<path id="Arrow 15" d="M1212.5 1L1212.5 1079" stroke="url(#paint23_linear_0_4)" stroke-opacity="0.2"/>
<path id="Arrow 16" d="M1313.5 1L1313.5 1079" stroke="url(#paint24_linear_0_4)" stroke-opacity="0.2"/>
<path id="Arrow 17" d="M1414.5 1L1414.5 1079" stroke="url(#paint25_linear_0_4)" stroke-opacity="0.2"/>
<path id="Arrow 18" d="M1515.5 1L1515.5 1079" stroke="url(#paint26_linear_0_4)" stroke-opacity="0.2"/>
<path id="Arrow 23" d="M1616.5 2.07629e-08L1616.5 1078" stroke="url(#paint27_linear_0_4)" stroke-opacity="0.2"/>
<path id="Arrow 19" d="M1717.5 1L1717.5 1079" stroke="url(#paint28_linear_0_4)" stroke-opacity="0.2"/>
<path id="Arrow 22" d="M1818.5 1L1818.5 1079" stroke="url(#paint29_linear_0_4)" stroke-opacity="0.2"/>
<path id="Arrow 4" d="M1919.5 1L1919.5 1079" stroke="url(#paint30_linear_0_4)" stroke-opacity="0.2"/>
</g>
<defs>
<linearGradient id="paint0_linear_0_4" x1="960.5" y1="981" x2="960.5" y2="982" gradientUnits="userSpaceOnUse">
<stop stop-color="#42389E"/>
<stop offset="1" stop-color="white"/>
</linearGradient>
<linearGradient id="paint1_linear_0_4" x1="960.5" y1="883" x2="960.5" y2="884" gradientUnits="userSpaceOnUse">
<stop stop-color="#42389E"/>
<stop offset="1" stop-color="white"/>
</linearGradient>
<linearGradient id="paint2_linear_0_4" x1="960.5" y1="785" x2="960.5" y2="786" gradientUnits="userSpaceOnUse">
<stop stop-color="#42389E"/>
<stop offset="1" stop-color="white"/>
</linearGradient>
<linearGradient id="paint3_linear_0_4" x1="960.5" y1="687" x2="960.5" y2="688" gradientUnits="userSpaceOnUse">
<stop stop-color="#42389E"/>
<stop offset="1" stop-color="white"/>
</linearGradient>
<linearGradient id="paint4_linear_0_4" x1="960.5" y1="589" x2="960.5" y2="590" gradientUnits="userSpaceOnUse">
<stop stop-color="#42389E"/>
<stop offset="1" stop-color="white"/>
</linearGradient>
<linearGradient id="paint5_linear_0_4" x1="960.5" y1="491" x2="960.5" y2="492" gradientUnits="userSpaceOnUse">
<stop stop-color="#42389E"/>
<stop offset="1" stop-color="white"/>
</linearGradient>
<linearGradient id="paint6_linear_0_4" x1="960.5" y1="393" x2="960.5" y2="394" gradientUnits="userSpaceOnUse">
<stop stop-color="#42389E"/>
<stop offset="1" stop-color="white"/>
</linearGradient>
<linearGradient id="paint7_linear_0_4" x1="961.5" y1="295" x2="961.5" y2="296" gradientUnits="userSpaceOnUse">
<stop stop-color="#42389E"/>
<stop offset="1" stop-color="white"/>
</linearGradient>
<linearGradient id="paint8_linear_0_4" x1="960.5" y1="197" x2="960.5" y2="198" gradientUnits="userSpaceOnUse">
<stop stop-color="#42389E"/>
<stop offset="1" stop-color="white"/>
</linearGradient>
<linearGradient id="paint9_linear_0_4" x1="960.5" y1="99" x2="960.5" y2="100" gradientUnits="userSpaceOnUse">
<stop stop-color="#42389E"/>
<stop offset="1" stop-color="white"/>
</linearGradient>
<linearGradient id="paint10_linear_0_4" x1="960.5" y1="1.00003" x2="960.5" y2="2.00003" gradientUnits="userSpaceOnUse">
<stop stop-color="#42389E"/>
<stop offset="1" stop-color="white"/>
</linearGradient>
<linearGradient id="paint11_linear_0_4" x1="0.500024" y1="540" x2="-0.499976" y2="540" gradientUnits="userSpaceOnUse">
<stop stop-color="#42389E"/>
<stop offset="1" stop-color="white"/>
</linearGradient>
<linearGradient id="paint12_linear_0_4" x1="101.5" y1="540" x2="100.5" y2="540" gradientUnits="userSpaceOnUse">
<stop stop-color="#42389E"/>
<stop offset="1" stop-color="white"/>
</linearGradient>
<linearGradient id="paint13_linear_0_4" x1="202.5" y1="540" x2="201.5" y2="540" gradientUnits="userSpaceOnUse">
<stop stop-color="#42389E"/>
<stop offset="1" stop-color="white"/>
</linearGradient>
<linearGradient id="paint14_linear_0_4" x1="303.5" y1="540" x2="302.5" y2="540" gradientUnits="userSpaceOnUse">
<stop stop-color="#42389E"/>
<stop offset="1" stop-color="white"/>
</linearGradient>
<linearGradient id="paint15_linear_0_4" x1="404.5" y1="540" x2="403.5" y2="540" gradientUnits="userSpaceOnUse">
<stop stop-color="#42389E"/>
<stop offset="1" stop-color="white"/>
</linearGradient>
<linearGradient id="paint16_linear_0_4" x1="505.5" y1="540" x2="504.5" y2="540" gradientUnits="userSpaceOnUse">
<stop stop-color="#42389E"/>
<stop offset="1" stop-color="white"/>
</linearGradient>
<linearGradient id="paint17_linear_0_4" x1="606.5" y1="540" x2="605.5" y2="540" gradientUnits="userSpaceOnUse">
<stop stop-color="#42389E"/>
<stop offset="1" stop-color="white"/>
</linearGradient>
<linearGradient id="paint18_linear_0_4" x1="707.5" y1="540" x2="706.5" y2="540" gradientUnits="userSpaceOnUse">
<stop stop-color="#42389E"/>
<stop offset="1" stop-color="white"/>
</linearGradient>
<linearGradient id="paint19_linear_0_4" x1="808.5" y1="540" x2="807.5" y2="540" gradientUnits="userSpaceOnUse">
<stop stop-color="#42389E"/>
<stop offset="1" stop-color="white"/>
</linearGradient>
<linearGradient id="paint20_linear_0_4" x1="909.5" y1="540" x2="908.5" y2="540" gradientUnits="userSpaceOnUse">
<stop stop-color="#42389E"/>
<stop offset="1" stop-color="white"/>
</linearGradient>
<linearGradient id="paint21_linear_0_4" x1="1010.5" y1="540" x2="1009.5" y2="540" gradientUnits="userSpaceOnUse">
<stop stop-color="#42389E"/>
<stop offset="1" stop-color="white"/>
</linearGradient>
<linearGradient id="paint22_linear_0_4" x1="1111.5" y1="540" x2="1110.5" y2="540" gradientUnits="userSpaceOnUse">
<stop stop-color="#42389E"/>
<stop offset="1" stop-color="white"/>
</linearGradient>
<linearGradient id="paint23_linear_0_4" x1="1212.5" y1="540" x2="1211.5" y2="540" gradientUnits="userSpaceOnUse">
<stop stop-color="#42389E"/>
<stop offset="1" stop-color="white"/>
</linearGradient>
<linearGradient id="paint24_linear_0_4" x1="1313.5" y1="540" x2="1312.5" y2="540" gradientUnits="userSpaceOnUse">
<stop stop-color="#42389E"/>
<stop offset="1" stop-color="white"/>
</linearGradient>
<linearGradient id="paint25_linear_0_4" x1="1414.5" y1="540" x2="1413.5" y2="540" gradientUnits="userSpaceOnUse">
<stop stop-color="#42389E"/>
<stop offset="1" stop-color="white"/>
</linearGradient>
<linearGradient id="paint26_linear_0_4" x1="1515.5" y1="540" x2="1514.5" y2="540" gradientUnits="userSpaceOnUse">
<stop stop-color="#42389E"/>
<stop offset="1" stop-color="white"/>
</linearGradient>
<linearGradient id="paint27_linear_0_4" x1="1616.5" y1="539" x2="1615.5" y2="539" gradientUnits="userSpaceOnUse">
<stop stop-color="#42389E"/>
<stop offset="1" stop-color="white"/>
</linearGradient>
<linearGradient id="paint28_linear_0_4" x1="1717.5" y1="540" x2="1716.5" y2="540" gradientUnits="userSpaceOnUse">
<stop stop-color="#42389E"/>
<stop offset="1" stop-color="white"/>
</linearGradient>
<linearGradient id="paint29_linear_0_4" x1="1818.5" y1="540" x2="1817.5" y2="540" gradientUnits="userSpaceOnUse">
<stop stop-color="#42389E"/>
<stop offset="1" stop-color="white"/>
</linearGradient>
<linearGradient id="paint30_linear_0_4" x1="1919.5" y1="540" x2="1918.5" y2="540" gradientUnits="userSpaceOnUse">
<stop stop-color="#42389E"/>
<stop offset="1" stop-color="white"/>
</linearGradient>
</defs>
</svg>
